<svg xmlns="http://www.w3.org/2000/svg">
    <symbol viewBox="0 0 256 256"   id="suitcase">
         <path d="M216.00781,68H172V56a20.02229,20.02229,0,0,0-20-20H104A20.02229,20.02229,0,0,0,84,56V68H40.00781a12.01375,12.01375,0,0,0-12,12v79.92236C28.00732,159.94873,28,159.97363,28,160s.00732.05127.00781.07764V208a12.01343,12.01343,0,0,0,12,12h176a12.01343,12.01343,0,0,0,12-12V80A12.01375,12.01375,0,0,0,216.00781,68ZM92,56a12.01375,12.01375,0,0,1,12-12h48a12.01375,12.01375,0,0,1,12,12V68H92ZM40.00781,76h176a4.00458,4.00458,0,0,1,4,4v76h-184V80A4.00458,4.00458,0,0,1,40.00781,76Zm176,136h-176a4.00458,4.00458,0,0,1-4-4V164h184v44A4.00458,4.00458,0,0,1,216.00781,212Z"/>

    </symbol>
</svg>


<svg xmlns="http://www.w3.org/2000/svg">
    <symbol id="time" viewBox="0 0 256 256">
        <path xmlns="http://www.w3.org/2000/svg" d="M188,128a4.0002,4.0002,0,0,1-4,4H128a4.0002,4.0002,0,0,1-4-4V72a4,4,0,0,1,8,0v52h52A4.0002,4.0002,0,0,1,188,128Zm5.05371-65.05371A91.99945,91.99945,0,1,1,128,36,91.39744,91.39744,0,0,1,193.05371,62.94629ZM212,128A84,84,0,0,0,68.603,68.603h0A84,84,0,1,0,212,128Zm20.65186-70.71045L198.71045,23.34814a3.99992,3.99992,0,0,0-5.65674,5.65674l33.94141,33.94141a3.99992,3.99992,0,1,0,5.65674-5.65674ZM62.94629,23.34814a4,4,0,0,0-5.65674,0L23.34814,57.28955a3.99992,3.99992,0,0,0,5.65674,5.65674L62.94629,29.00488A4,4,0,0,0,62.94629,23.34814Z"/>
    </symbol>
</svg>

<svg xmlns="http://www.w3.org/2000/svg">
    <symbol id="heart" viewBox="0 0 256 256">
        <path xmlns="http://www.w3.org/2000/svg" d="M128.00586,220a3.993,3.993,0,0,1-1.9541-.51,312.79378,312.79378,0,0,1-50.72168-37.01685C41.27344,151.82263,24.00586,121.38306,24.00586,92a56.013,56.013,0,0,1,104-28.87823A56.013,56.013,0,0,1,232.00586,92c0,29.38306-17.26758,59.82263-51.32422,90.47314A312.79378,312.79378,0,0,1,129.96,219.49,3.993,3.993,0,0,1,128.00586,220Zm-48-176a48.054,48.054,0,0,0-48,48c0,59.701,82.17578,111.14148,96,119.36853,13.82422-8.227,96-59.66754,96-119.36853a48.00892,48.00892,0,0,0-92.30957-18.49268,3.99954,3.99954,0,0,1-7.38086,0A47.90343,47.90343,0,0,0,80.00586,44Z"/>
    </symbol>
</svg>

<svg xmlns="http://www.w3.org/2000/svg">
    <symbol id="star" viewBox="0 0 256 256">
        <path xmlns="http://www.w3.org/2000/svg" d="M187.27344,228.01147a12.22943,12.22943,0,0,1-6.56739-1.946l-50.43554-31.95386a4.20647,4.20647,0,0,0-4.541,0L78.85937,223.8064a13.648,13.648,0,0,1-15.59082-.49048,14.39145,14.39145,0,0,1-5.47168-15.293l13.51368-53.16016A4.75433,4.75433,0,0,0,69.791,150.047L24.56348,112.40344a12.676,12.676,0,0,1-3.91993-13.74768,12.22556,12.22556,0,0,1,10.9795-8.62268L90.6875,86.19983a4.4467,4.4467,0,0,0,3.78809-2.83472l22.02929-55.47363a12.31785,12.31785,0,0,1,22.99024.00024L161.52441,83.3645a4.44633,4.44633,0,0,0,3.78809,2.83533L224.377,90.03308a12.22557,12.22557,0,0,1,10.9795,8.62268,12.67572,12.67572,0,0,1-3.91993,13.74756L186.209,150.04688a4.75486,4.75486,0,0,0-1.51953,4.81616l14.57227,57.322a12.65708,12.65708,0,0,1-4.81445,13.448A12.17922,12.17922,0,0,1,187.27344,228.01147ZM128,185.43335a12.21611,12.21611,0,0,1,6.55176,1.92041h0l50.43554,31.95386a4.08991,4.08991,0,0,0,4.7627-.15064,4.641,4.641,0,0,0,1.75781-5.00073l-14.57226-57.32251a12.79587,12.79587,0,0,1,4.15625-12.93591l45.22754-37.64331a4.67409,4.67409,0,0,0,1.43066-5.12281,4.37647,4.37647,0,0,0-3.89063-3.11547L164.79492,94.183a12.48164,12.48164,0,0,1-10.70605-7.86645l-22.0293-55.47241a4.31935,4.31935,0,0,0-8.11914-.00025l-22.0293,55.47327A12.482,12.482,0,0,1,91.20508,94.183L32.14062,98.01624A4.37647,4.37647,0,0,0,28.25,101.13171a4.67432,4.67432,0,0,0,1.43066,5.12293L74.9082,143.898a12.79537,12.79537,0,0,1,4.15625,12.93555L65.55078,209.99414a6.35586,6.35586,0,0,0,2.415,6.8457,5.717,5.717,0,0,0,6.6123.20874l46.87012-29.69482A12.21609,12.21609,0,0,1,128,185.43335Z"/>
    </symbol>
</svg>